HIERARCHY
ROOT hip
{
  OFFSET 0.0 0.0 0.0
  CHANNELS 6 Xposition Yposition Zposition Zrotation Yrotation Xrotation
  JOINT abdomen
  {
    OFFSET 0.0 20.6881 -0.73152
    CHANNELS 3 Zrotation Xrotation Yrotation
    JOINT chest
    {
      OFFSET 0.0 11.7043 -0.48768
      CHANNELS 3 Zrotation Xrotation Yrotation
      JOINT neck
      {
        OFFSET 0.0 22.1894 -2.19456
        CHANNELS 3 Zrotation Xrotation Yrotation
        JOINT head
        {
          OFFSET -0.24384 7.07133 1.2192
          CHANNELS 3 Zrotation Xrotation Yrotation
          JOINT leftEye
          {
            OFFSET 4.14528 8.04674 8.04672
            CHANNELS 3 Zrotation Xrotation Yrotation
            End Site
            {
              OFFSET 1.0 0.0 0.0
            }
          }
          JOINT rightEye
          {
            OFFSET -3.6576 8.04674 8.04672
            CHANNELS 3 Zrotation Xrotation Yrotation
            End Site
            {
              OFFSET 1.0 0.0 0.0
            }
          }
        }
      }
      JOINT rCollar
      {
        OFFSET -2.68224 19.2634 -4.8768
        CHANNELS 3 Zrotation Xrotation Yrotation
        JOINT rShldr
        {
          OFFSET -8.77824 -1.95073 1.46304
          CHANNELS 3 Zrotation Xrotation Yrotation
          JOINT rForeArm
          {
            OFFSET -28.1742 -1.7115 0.48768
            CHANNELS 3 Zrotation Xrotation Yrotation
            JOINT rHand
            {
              OFFSET -22.5879 0.773209 7.07136
              CHANNELS 3 Zrotation Xrotation Yrotation
              JOINT rThumb1
              {
                OFFSET -1.2192 -0.487915 3.41376
                CHANNELS 3 Zrotation Xrotation Yrotation
                JOINT rThumb2
                {
                  OFFSET -3.37035 -0.52449 3.41376
                  CHANNELS 3 Zrotation Xrotation Yrotation
                  End Site
                  {
                    OFFSET -1.78271 -1.18214 1.43049
                  }
                }
              }
              JOINT rIndex1
              {
                OFFSET -7.75947 0.938293 5.60832
                CHANNELS 3 Zrotation Xrotation Yrotation
                JOINT rIndex2
                {
                  OFFSET -2.54057 -0.884171 1.56538
                  CHANNELS 3 Zrotation Xrotation Yrotation
                  End Site
                  {
                    OFFSET -1.62519 -0.234802 1.16502
                  }
                }
              }
              JOINT rMid1
              {
                OFFSET -8.24714 1.18213 3.41376
                CHANNELS 3 Zrotation Xrotation Yrotation
                JOINT rMid2
                {
                  OFFSET -3.10165 -0.590103 1.0647
                  CHANNELS 3 Zrotation Xrotation Yrotation
                  End Site
                  {
                    OFFSET -2.48547 -0.328903 0.83742
                  }
                }
              }
              JOINT rRing1
              {
                OFFSET -8.82822 0.546677 1.51678
                CHANNELS 3 Zrotation Xrotation Yrotation
                JOINT rRing2
                {
                  OFFSET -2.60934 -0.819778 -0.0198488
                  CHANNELS 3 Zrotation Xrotation Yrotation
                  End Site
                  {
                    OFFSET -2.33842 -0.294052 0.168128
                  }
                }
              }
              JOINT rPinky1
              {
                OFFSET -8.27202 -0.0477905 -0.4584
                CHANNELS 3 Zrotation Xrotation Yrotation
                JOINT rPinky2
                {
                  OFFSET -1.82734 -0.647385 -0.700984
                  CHANNELS 3 Zrotation Xrotation Yrotation
                  End Site
                  {
                    OFFSET -1.69225 -0.51767 -0.607171
                  }
                }
              }
            }
          }
        }
      }
      JOINT lCollar
      {
        OFFSET 2.68224 19.2634 -4.8768
        CHANNELS 3 Zrotation Xrotation Yrotation
        JOINT lShldr
        {
          OFFSET 8.77824 -1.95073 1.46304
          CHANNELS 3 Zrotation Xrotation Yrotation
          JOINT lForeArm
          {
            OFFSET 28.1742 -1.7115 0.48768
            CHANNELS 3 Zrotation Xrotation Yrotation
            JOINT lHand
            {
              OFFSET 22.5879 0.773209 7.07136
              CHANNELS 3 Zrotation Xrotation Yrotation
              JOINT lThumb1
              {
                OFFSET 1.2192 -0.487915 3.41376
                CHANNELS 3 Zrotation Xrotation Yrotation
                JOINT lThumb2
                {
                  OFFSET 3.37035 -0.52449 3.41376
                  CHANNELS 3 Zrotation Xrotation Yrotation
                  End Site
                  {
                    OFFSET 1.78271 -1.18214 1.43049
                  }
                }
              }
              JOINT lIndex1
              {
                OFFSET 7.75947 0.938293 5.60832
                CHANNELS 3 Zrotation Xrotation Yrotation
                JOINT lIndex2
                {
                  OFFSET 2.54057 -0.884171 1.56538
                  CHANNELS 3 Zrotation Xrotation Yrotation
                  End Site
                  {
                    OFFSET 1.62519 -0.234802 1.16502
                  }
                }
              }
              JOINT lMid1
              {
                OFFSET 8.24714 1.18213 3.41376
                CHANNELS 3 Zrotation Xrotation Yrotation
                JOINT lMid2
                {
                  OFFSET 3.10165 -0.590103 1.0647
                  CHANNELS 3 Zrotation Xrotation Yrotation
                  End Site
                  {
                    OFFSET 2.48547 -0.328903 0.83742
                  }
                }
              }
              JOINT lRing1
              {
                OFFSET 8.82822 0.546677 1.51678
                CHANNELS 3 Zrotation Xrotation Yrotation
                JOINT lRing2
                {
                  OFFSET 2.60934 -0.819778 -0.0198488
                  CHANNELS 3 Zrotation Xrotation Yrotation
                  End Site
                  {
                    OFFSET 2.33842 -0.294052 0.168128
                  }
                }
              }
              JOINT lPinky1
              {
                OFFSET 8.27202 -0.0477905 -0.4584
                CHANNELS 3 Zrotation Xrotation Yrotation
                JOINT lPinky2
                {
                  OFFSET 1.82734 -0.647385 -0.700984
                  CHANNELS 3 Zrotation Xrotation Yrotation
                  End Site
                  {
                    OFFSET 1.69225 -0.51767 -0.607171
                  }
                }
              }
            }
          }
        }
      }
    }
  }
  JOINT rButtock
  {
    OFFSET -8.77824 4.35084 1.2192
    CHANNELS 3 Zrotation Xrotation Yrotation
    JOINT rThigh
    {
      OFFSET 0.0 -1.70687 -2.19456
      CHANNELS 3 Zrotation Xrotation Yrotation
      JOINT rShin
      {
        OFFSET 0.0 -36.8199 0.73152
        CHANNELS 3 Zrotation Xrotation Yrotation
        JOINT rFoot
        {
          OFFSET 0.73152 -45.1104 -5.12064
          CHANNELS 3 Zrotation Xrotation Yrotation
          End Site
          {
            OFFSET -1.1221 -3.69964 12.103
          }
        }
      }
    }
  }
  JOINT lButtock
  {
    OFFSET 8.77824 4.35084 1.2192
    CHANNELS 3 Zrotation Xrotation Yrotation
    JOINT lThigh
    {
      OFFSET 0.0 -1.70687 -2.19456
      CHANNELS 3 Zrotation Xrotation Yrotation
      JOINT lShin
      {
        OFFSET 0.0 -36.8199 0.73152
        CHANNELS 3 Zrotation Xrotation Yrotation
        JOINT lFoot
        {
          OFFSET -0.73152 -45.1104 -5.12064
          CHANNELS 3 Zrotation Xrotation Yrotation
          End Site
          {
            OFFSET 1.1221 -3.69964 12.103
          }
        }
      }
    }
  }
}
MOTION
Frames: 4
Frame Time: 0.00833333
0.0 80.8736 0.0 1.3083 4.7689 1.3804 0.937364 8.38826 -6.03554 6.75129 -6.65703 -1.24991 8.64212 -6.36642 3.28377 -11.1963 -17.2684 1.52051 -0.0 0.0 0.0 -0.0 0.0 0.0 1.77139e-14 4.73076e-14 1.96499e-13 75.822 6.72798 -1.27121 -24.3703 -19.8056 50.8031 -0.135089 -10.4216 -1.4812 -1.08856e-09 2.00523e-09 -4.81345e-11 -1.87958e-09 3.4586e-09 -8.93434e-11 -1.08855e-09 2.00524e-09 -4.81377e-11 7.73091 5.47488 0.417314 -1.08856e-09 2.00523e-09 -4.81409e-11 2.90554 0.965183 0.102902 -1.08855e-09 2.00523e-09 -4.81377e-11 10.2786 0.731801 0.0259123 -1.08856e-09 2.00523e-09 -4.81313e-11 2.22167 -0.733487 -0.20892 1.74721e-14 4.73119e-14 1.9625e-13 -74.6164 23.438 3.835 24.6166 -20.2962 -51.6232 0.179693 -11.9921 1.71068 -1.36026e-09 -3.79291e-09 1.51235e-11 -2.35147e-09 -6.55825e-09 1.69659e-11 -1.36026e-09 -3.79291e-09 1.51681e-11 -7.73091 5.47488 -0.417314 -1.36025e-09 -3.79291e-09 1.51394e-11 -2.90554 0.965183 -0.102902 -1.36026e-09 -3.79291e-09 1.51386e-11 -10.2786 0.731801 -0.0259123 -1.36026e-09 -3.79292e-09 1.51267e-11 -2.22167 -0.733487 0.20892 -2.03217e-16 0.0 -3.88251e-19 -5.11085 -48.859 0.234425 -0.436336 42.0598 0.446538 0.432225 12.1077 -10.4385 2.03217e-16 0.0 3.88251e-19 -3.5195 14.3718 -5.39485 0.105105 29.9923 -0.883449 0.979376 3.60743 7.80269
-0.142762 81.0542 1.2542000000000009 1.2157 4.6768 1.3138 1.31043 8.48422 -5.96404 6.8338 -6.61689 -1.20997 8.628 -6.48308 3.33159 -11.4123 -17.1861 1.58459 -0.0 0.0 0.0 -0.0 0.0 0.0 1.83836e-14 2.92119e-14 1.87547e-13 76.1118 6.38677 -1.53605 -24.0193 -19.1382 49.6472 -0.127584 -10.1428 -1.44066 -8.82704e-10 1.57587e-09 -1.33332e-10 -1.52314e-09 2.71698e-09 -2.34958e-10 -8.82697e-10 1.57587e-09 -1.33335e-10 7.73091 5.47488 0.417314 -8.82706e-10 1.57587e-09 -1.33337e-10 2.90554 0.965183 0.102902 -8.82695e-10 1.57587e-09 -1.33335e-10 10.2786 0.731801 0.0259123 -8.8271e-10 1.57587e-09 -1.33329e-10 2.22167 -0.733487 -0.20892 1.81769e-14 2.92168e-14 1.87307e-13 -75.2461 23.2639 4.15114 24.1786 -19.4455 -50.1071 0.193598 -12.3953 1.7703 -1.24739e-09 -3.52636e-09 7.97051e-11 -2.15715e-09 -6.0989e-09 1.28951e-10 -1.24739e-09 -3.52636e-09 7.97446e-11 -7.73091 5.47488 -0.417314 -1.24738e-09 -3.52636e-09 7.97206e-11 -2.90554 0.965183 -0.102902 -1.24738e-09 -3.52636e-09 7.97183e-11 -10.2786 0.731801 -0.0259123 -1.24739e-09 -3.52637e-09 7.97072e-11 -2.22167 -0.733487 0.20892 -2.03217e-16 0.0 -3.88251e-19 -4.43377 -48.4038 0.36733 -0.46043 42.8003 0.419686 0.284318 11.0667 -10.8637 2.03217e-16 0.0 3.88251e-19 -3.11798 12.7899 -5.27306 0.154221 32.5579 -0.867971 0.616646 6.59209 6.25626
-0.29892399999999997 81.4549 2.505300000000002 0.9786 4.7616 1.2665 1.75512 8.48941 -5.98202 6.9184 -6.54712 -1.1937 8.56839 -6.59 3.34018 -11.5649 -16.9084 1.61618 -0.0 0.0 0.0 -0.0 0.0 0.0 1.56676e-14 2.96648e-16 1.4324e-13 76.3555 6.08247 -1.80933 -23.6328 -18.4348 48.4234 -0.11812 -9.76887 -1.38645 -4.30208e-10 5.54965e-10 -3.07612e-10 -7.39681e-10 9.52351e-10 -5.33271e-10 -4.30201e-10 5.54964e-10 -3.07618e-10 7.73091 5.47488 0.417314 -4.3021e-10 5.54964e-10 -3.07615e-10 2.90554 0.965183 0.102902 -4.302e-10 5.54963e-10 -3.07613e-10 10.2786 0.731801 0.0259123 -4.30213e-10 5.54965e-10 -3.07609e-10 2.22167 -0.733487 -0.20892 1.55178e-14 2.98689e-16 1.43019e-13 -75.7132 23.3814 4.30981 23.6455 -18.4625 -48.4116 0.201588 -12.6298 1.80499 -9.38781e-10 -2.66586e-09 1.99523e-10 -1.62502e-09 -4.61379e-09 3.37331e-10 -9.38782e-10 -2.66586e-09 1.99552e-10 -7.73091 5.47488 -0.417314 -9.38775e-10 -2.66586e-09 1.99537e-10 -2.90554 0.965183 -0.102902 -9.38778e-10 -2.66586e-09 1.99533e-10 -10.2786 0.731801 -0.0259123 -9.3878e-10 -2.66586e-09 1.99524e-10 -2.22167 -0.733487 0.20892 -2.03217e-16 0.0 -3.88251e-19 -3.87805 -47.7473 0.184008 -0.481531 43.3156 0.379786 0.119971 10.0265 -11.1459 2.03217e-16 0.0 3.88251e-19 -2.56042 11.0395 -5.22918 0.206472 35.0887 -0.844243 0.392707 9.83492 4.39393
-0.4837699 81.7117 3.7063000000000024 0.5882 4.9761 1.2305 2.27852 8.43932 -6.02756 6.96855 -6.4736 -1.18553 8.46776 -6.68067 3.3124 -11.6564 -16.5079 1.61333 -0.0 0.0 0.0 -0.0 0.0 0.0 1.35788e-14 -2.86678e-14 8.98806e-14 76.5899 5.81317 -2.13207 -23.2356 -17.7399 47.2381 -0.108671 -9.36934 -1.32872 4.68902e-11 -5.29072e-10 -4.76625e-10 8.62381e-11 -9.21389e-10 -8.22397e-10 4.68958e-11 -5.29077e-10 -4.76635e-10 7.73091 5.47488 0.417314 4.68885e-11 -5.29076e-10 -4.76626e-10 2.90554 0.965183 0.102902 4.68963e-11 -5.29076e-10 -4.76626e-10 10.2786 0.731801 0.0259123 4.68856e-11 -5.29073e-10 -4.76622e-10 2.22167 -0.733487 -0.20892 1.34863e-14 -2.86695e-14 8.96775e-14 -76.0674 23.7386 4.37809 23.0475 -17.4228 -46.6663 0.202002 -12.6583 1.80911 -5.85786e-10 -1.65874e-09 3.13409e-10 -1.01604e-09 -2.875e-09 5.35748e-10 -5.85791e-10 -1.65874e-09 3.13426e-10 -7.73091 5.47488 -0.417314 -5.85783e-10 -1.65873e-09 3.1342e-10 -2.90554 0.965183 -0.102902 -5.85784e-10 -1.65873e-09 3.13414e-10 -10.2786 0.731801 -0.0259123 -5.85787e-10 -1.65873e-09 3.13407e-10 -2.22167 -0.733487 0.20892 -2.03217e-16 0.0 -3.88251e-19 -3.29228 -46.9553 -0.0437516 -0.497889 43.6385 0.333792 -0.039302 9.04432 -11.4352 2.03217e-16 0.0 3.88251e-19 -1.89083 9.19902 -5.21589 0.261255 37.6272 -0.822984 0.368677 12.8218 2.62875
